<svg xmlns="http://www.w3.org/2000/svg" width="874" height="294" viewBox="0 0 874 294" fill="#000">
  <path d="M1.177,130.86a1.679,1.679,0,0,0,1.9,1.9h7.03a1.68,1.68,0,0,0,1.9-1.9V73.48a1.008,1.008,0,0,1,1.14-1.14h63.84a1.008,1.008,0,0,1,1.14,1.14v57.38a1.679,1.679,0,0,0,1.9,1.9h7.03a1.68,1.68,0,0,0,1.9-1.9V5.46a1.681,1.681,0,0,0-1.9-1.9h-7.03a1.68,1.68,0,0,0-1.9,1.9V60.94a1.008,1.008,0,0,1-1.14,1.14H13.147a1.008,1.008,0,0,1-1.14-1.14V5.46a1.681,1.681,0,0,0-1.9-1.9H3.077a1.68,1.68,0,0,0-1.9,1.9v125.4Zm115.329,0q-0.57,1.9,1.33,1.9h7.41a2.582,2.582,0,0,0,2.47-1.9l11.4-31.73h56.24l11.4,31.73a2.22,2.22,0,0,0,2.47,1.9h7.41q1.9,0,1.33-1.9L173.126,5.46a2.282,2.282,0,0,0-2.28-1.9h-6.84a2.282,2.282,0,0,0-2.28,1.9Zm26.22-42.18,24.32-67.64h0.57l24.13,67.64h-49.02Zm188.1,44.08a1.245,1.245,0,0,0,1.235-.57,1.609,1.609,0,0,0-.285-1.52l-28.12-57.19Q316.2,70.443,323.13,61.6t6.935-22.325q0-16.717-10.45-26.22t-28.88-9.5h-43.32a1.68,1.68,0,0,0-1.9,1.9v125.4a1.679,1.679,0,0,0,1.9,1.9h7.03a1.68,1.68,0,0,0,1.9-1.9V76.14a1.008,1.008,0,0,1,1.14-1.14h35.15l27.17,56.05a2.44,2.44,0,0,0,2.28,1.71h8.74Zm-73.34-68.02a1.008,1.008,0,0,1-1.14-1.14V14.96a1.008,1.008,0,0,1,1.14-1.14h33.06q13.866,0,21.28,6.65t7.41,18.81q0,12.353-7.41,18.905t-21.28,6.555h-33.06Zm193.988,68.02a1.245,1.245,0,0,0,1.235-.57,1.609,1.609,0,0,0-.285-1.52L424.3,73.48q12.54-3.037,19.475-11.875t6.935-22.325q0-16.717-10.45-26.22t-28.88-9.5h-43.32a1.68,1.68,0,0,0-1.9,1.9v125.4a1.679,1.679,0,0,0,1.9,1.9h7.03a1.68,1.68,0,0,0,1.9-1.9V76.14a1.008,1.008,0,0,1,1.14-1.14h35.15l27.17,56.05a2.44,2.44,0,0,0,2.28,1.71h8.74Zm-73.34-68.02a1.008,1.008,0,0,1-1.14-1.14V14.96a1.008,1.008,0,0,1,1.14-1.14h33.06q13.866,0,21.28,6.65t7.41,18.81q0,12.353-7.41,18.905t-21.28,6.555h-33.06Z"/>
  <path d="M593.177,131.905a39.478,39.478,0,0,0,14.25-7.79,33.208,33.208,0,0,0,8.645-11.875,37.58,37.58,0,0,0,2.945-15.01q0-14.437-9.025-23.275t-28.785-11.5l-5.89-.76q-16.53-2.088-23.465-8.36a20.773,20.773,0,0,1-6.935-16.15q0-11.4,7.695-18.335t21.565-6.935a53.243,53.243,0,0,1,15.96,2.375,69.718,69.718,0,0,1,15.39,7.125,1.849,1.849,0,0,0,2.66-.38l3.8-5.89q1.327-1.71-.38-2.66A53.124,53.124,0,0,0,595.267,4.6a70.227,70.227,0,0,0-20.52-2.945q-18.622,0-29.64,9.69t-11.02,26.6q0,14.25,9.12,22.99t28.12,11.21l5.89,0.76a65.927,65.927,0,0,1,14.915,3.42,29.39,29.39,0,0,1,9.5,5.51,18.838,18.838,0,0,1,5.035,7.315,25.183,25.183,0,0,1,1.52,8.835q0,11.97-8.93,19.19t-24.51,7.22a51.987,51.987,0,0,1-21-4.18A76.9,76.9,0,0,1,537.7,111.1q-1.332-1.327-2.66.19l-4.56,5.7q-1.332,1.331.19,2.66a61.437,61.437,0,0,0,8.075,5.6A63.844,63.844,0,0,0,549,130.1a75.672,75.672,0,0,0,11.875,3.325A68.948,68.948,0,0,0,593.177,131.905Zm126.444-4.655q10.545-7.41,15.3-21.66,0.756-2.468,1.52-5.605a60.737,60.737,0,0,0,1.235-7.41q0.471-4.275.76-10.165t0.285-14.25q0-8.358-.285-14.25t-0.76-10.165a56.979,56.979,0,0,0-1.235-7.315q-0.762-3.037-1.52-5.7-4.752-14.25-15.3-21.66T693.306,1.66q-15.96,0-26.5,7.41t-15.3,21.66a45.967,45.967,0,0,0-1.615,5.7,70.666,70.666,0,0,0-1.14,7.315q-0.477,4.275-.76,10.165t-0.285,14.25q0,8.363.285,14.25t0.76,10.165q0.471,4.275,1.14,7.41a36.6,36.6,0,0,0,1.615,5.605q4.746,14.25,15.3,21.66t26.5,7.41Q709.074,134.66,719.621,127.25Zm7.79-45.6q-0.285,5.7-.665,9.69a46.617,46.617,0,0,1-1.045,6.65q-0.669,2.663-1.235,4.56-7.224,21.851-31.16,21.85-24.132,0-31.35-21.85-0.57-1.9-1.235-4.56a45.5,45.5,0,0,1-1.045-6.65q-0.384-3.99-.665-9.69t-0.285-13.49q0-7.788.285-13.49t0.665-9.69a45.57,45.57,0,0,1,1.045-6.65q0.663-2.658,1.235-4.56,7.218-21.847,31.35-21.85,23.94,0,31.16,21.85,0.57,1.9,1.235,4.56a46.687,46.687,0,0,1,1.045,6.65q0.378,3.99.665,9.69T727.7,68.16Q727.7,75.953,727.411,81.65Zm45.314,49.21a1.679,1.679,0,0,0,1.9,1.9h7.03a1.68,1.68,0,0,0,1.9-1.9V24.46h0.76l63.84,106.4a3.573,3.573,0,0,0,3.23,1.9h7.41a1.68,1.68,0,0,0,1.9-1.9V5.46a1.681,1.681,0,0,0-1.9-1.9h-7.03a1.68,1.68,0,0,0-1.9,1.9V111.67H849.3L784.885,5.46a3.33,3.33,0,0,0-3.23-1.9h-7.03a1.68,1.68,0,0,0-1.9,1.9v125.4Z"/>
  <path d="M5.3,211.531a0.53,0.53,0,0,0,.6-0.6v-15.48a0.318,0.318,0,0,1,.36-0.36h9.42a15.557,15.557,0,0,0,5.34-.87,11.577,11.577,0,0,0,4.08-2.46,11,11,0,0,0,2.61-3.84,13.96,13.96,0,0,0,0-10.02,11.021,11.021,0,0,0-2.61-3.84,11.636,11.636,0,0,0-4.08-2.46,15.605,15.605,0,0,0-5.34-.87H1.159a0.531,0.531,0,0,0-.6.6v39.6a0.53,0.53,0,0,0,.6.6H5.3Zm0.96-21.42a0.318,0.318,0,0,1-.36-0.36v-13.68a0.318,0.318,0,0,1,.36-0.36h9.12a8.4,8.4,0,0,1,5.88,1.92,7.688,7.688,0,0,1,0,10.56,8.392,8.392,0,0,1-5.88,1.92H6.259Zm35.82,20.82a0.53,0.53,0,0,0,.6.6h4.14a0.53,0.53,0,0,0,.6-0.6v-17.16a0.318,0.318,0,0,1,.36-0.36h17.7a0.318,0.318,0,0,1,.36.36v17.16a0.53,0.53,0,0,0,.6.6h4.14a0.53,0.53,0,0,0,.6-0.6v-39.6a0.531,0.531,0,0,0-.6-0.6h-4.14a0.531,0.531,0,0,0-.6.6v16.74a0.318,0.318,0,0,1-.36.36h-17.7a0.318,0.318,0,0,1-.36-0.36v-16.74a0.531,0.531,0,0,0-.6-0.6h-4.14a0.531,0.531,0,0,0-.6.6v39.6Zm67.47-1.14a13.239,13.239,0,0,0,5.13-7.14,18.058,18.058,0,0,0,.51-1.86,18.749,18.749,0,0,0,.33-2.25q0.12-1.288.18-3.09t0.06-4.32q0-2.52-.06-4.32t-0.18-3.09a18.872,18.872,0,0,0-.33-2.25,18.2,18.2,0,0,0-.51-1.86,13.254,13.254,0,0,0-5.13-7.14,15.408,15.408,0,0,0-8.79-2.4,15.294,15.294,0,0,0-8.73,2.4,13.251,13.251,0,0,0-5.13,7.14,17.97,17.97,0,0,0-.51,1.86,18.689,18.689,0,0,0-.33,2.25q-0.121,1.291-.18,3.09t-0.06,4.32q0,2.52.06,4.32t0.18,3.09a18.569,18.569,0,0,0,.33,2.25,17.833,17.833,0,0,0,.51,1.86,13.236,13.236,0,0,0,5.13,7.14,15.279,15.279,0,0,0,8.73,2.4A15.392,15.392,0,0,0,109.549,209.791Zm-14.34-4.14a8.724,8.724,0,0,1-3.09-4.5,10.185,10.185,0,0,1-.33-1.35q-0.15-.81-0.3-2.01t-0.21-2.82q-0.06-1.62-.06-3.84t0.06-3.84q0.059-1.62.21-2.82t0.3-2.01a10.185,10.185,0,0,1,.33-1.35,8.741,8.741,0,0,1,3.09-4.5,9.172,9.172,0,0,1,5.55-1.56,9.311,9.311,0,0,1,5.58,1.56,8.675,8.675,0,0,1,3.12,4.5,10.28,10.28,0,0,1,.33,1.35q0.15,0.81.3,2.01t0.21,2.82q0.06,1.62.06,3.84t-0.06,3.84q-0.06,1.62-.21,2.82t-0.3,2.01a10.28,10.28,0,0,1-.33,1.35,8.658,8.658,0,0,1-3.12,4.5,9.3,9.3,0,0,1-5.58,1.56A9.159,9.159,0,0,1,95.209,205.651Zm46.89,5.88a0.53,0.53,0,0,0,.6-0.6v-34.86a0.318,0.318,0,0,1,.36-0.36h11.16a0.53,0.53,0,0,0,.6-0.6v-3.78a0.531,0.531,0,0,0-.6-0.6h-28.38a0.531,0.531,0,0,0-.6.6v3.78a0.53,0.53,0,0,0,.6.6H137a0.318,0.318,0,0,1,.36.36v34.86a0.53,0.53,0,0,0,.6.6h4.14Zm45.93-1.74a13.239,13.239,0,0,0,5.13-7.14,18.058,18.058,0,0,0,.51-1.86,18.749,18.749,0,0,0,.33-2.25q0.12-1.288.18-3.09t0.06-4.32q0-2.52-.06-4.32t-0.18-3.09a18.872,18.872,0,0,0-.33-2.25,18.2,18.2,0,0,0-.51-1.86,13.254,13.254,0,0,0-5.13-7.14,17.187,17.187,0,0,0-17.52,0,13.254,13.254,0,0,0-5.13,7.14,18.2,18.2,0,0,0-.51,1.86,18.872,18.872,0,0,0-.33,2.25q-0.12,1.291-.18,3.09t-0.06,4.32q0,2.52.06,4.32t0.18,3.09a18.749,18.749,0,0,0,.33,2.25,18.058,18.058,0,0,0,.51,1.86,13.239,13.239,0,0,0,5.13,7.14A17.187,17.187,0,0,0,188.029,209.791Zm-14.34-4.14a8.729,8.729,0,0,1-3.09-4.5,10.28,10.28,0,0,1-.33-1.35q-0.15-.81-0.3-2.01t-0.21-2.82q-0.06-1.62-.06-3.84t0.06-3.84q0.06-1.62.21-2.82t0.3-2.01a10.28,10.28,0,0,1,.33-1.35,8.746,8.746,0,0,1,3.09-4.5,9.174,9.174,0,0,1,5.55-1.56,9.311,9.311,0,0,1,5.58,1.56,8.675,8.675,0,0,1,3.12,4.5,10.28,10.28,0,0,1,.33,1.35q0.15,0.81.3,2.01t0.21,2.82q0.06,1.62.06,3.84t-0.06,3.84q-0.06,1.62-.21,2.82t-0.3,2.01a10.28,10.28,0,0,1-.33,1.35,8.658,8.658,0,0,1-3.12,4.5,9.3,9.3,0,0,1-5.58,1.56A9.16,9.16,0,0,1,173.689,205.651Zm39.99,4.14a15.537,15.537,0,0,0,8.82,2.4,15.053,15.053,0,0,0,8.73-2.49,13.3,13.3,0,0,0,5.13-7.17,20.777,20.777,0,0,0,.75-3.87,45.43,45.43,0,0,0,.27-5.13v-3.06a0.531,0.531,0,0,0-.6-0.6h-13.02a0.53,0.53,0,0,0-.6.6v3.48a0.53,0.53,0,0,0,.6.6h7.92a0.318,0.318,0,0,1,.36.36,25.957,25.957,0,0,1-.24,3.84,20.618,20.618,0,0,1-.54,2.58,8.019,8.019,0,0,1-3.3,4.38,9.889,9.889,0,0,1-5.46,1.5,9.54,9.54,0,0,1-5.67-1.56,8.58,8.58,0,0,1-3.15-4.5c-0.12-.36-0.24-0.8-0.36-1.32a13.368,13.368,0,0,1-.27-1.92q-0.09-1.139-.15-2.79t-0.06-3.99q0-2.34.06-3.99t0.15-2.79a13.451,13.451,0,0,1,.27-1.92c0.12-.519.24-0.96,0.36-1.32a8.6,8.6,0,0,1,3.15-4.5,9.555,9.555,0,0,1,5.67-1.56,9.887,9.887,0,0,1,5.34,1.32,10.72,10.72,0,0,1,3.6,4.08,0.543,0.543,0,0,0,.84.3l3.6-1.74a0.556,0.556,0,0,0,.18-0.84,15,15,0,0,0-1.98-3.15,12.866,12.866,0,0,0-2.88-2.58,14.1,14.1,0,0,0-3.84-1.74,17.348,17.348,0,0,0-4.86-.63,15.553,15.553,0,0,0-8.82,2.4,13.193,13.193,0,0,0-5.16,7.14,13.965,13.965,0,0,0-.48,1.86q-0.18.962-.33,2.25t-0.21,3.09q-0.061,1.8-.06,4.32t0.06,4.32q0.059,1.8.21,3.09t0.33,2.25a13.887,13.887,0,0,0,.48,1.86A13.178,13.178,0,0,0,213.679,209.791Zm66.779,1.74a0.442,0.442,0,0,0,.42-0.21,0.489,0.489,0,0,0-.06-0.51l-8.7-17.22a11.556,11.556,0,0,0,5.88-4.08,11.366,11.366,0,0,0,2.16-7.02,12.241,12.241,0,0,0-.93-4.83,10.555,10.555,0,0,0-2.61-3.72,11.84,11.84,0,0,0-4.02-2.37,15.391,15.391,0,0,0-5.22-.84h-14.76a0.531,0.531,0,0,0-.6.6v39.6a0.53,0.53,0,0,0,.6.6h4.14a0.53,0.53,0,0,0,.6-0.6v-16.32a0.318,0.318,0,0,1,.36-0.36h9l8.16,16.68a0.813,0.813,0,0,0,.78.6h4.8Zm-22.74-22.26a0.318,0.318,0,0,1-.36-0.36v-12.84a0.318,0.318,0,0,1,.36-0.36h9.54a8.093,8.093,0,0,1,5.58,1.77,7.328,7.328,0,0,1,0,10.02,8.084,8.084,0,0,1-5.58,1.77h-9.54Zm33.719,21.66c-0.12.4,0.02,0.6,0.42,0.6h4.2a0.814,0.814,0,0,0,.78-0.6l3.12-8.88h16.5l3.12,8.88a0.752,0.752,0,0,0,.78.6h4.2c0.4,0,.54-0.2.42-0.6L311,171.331a0.754,0.754,0,0,0-.78-0.6h-3.9a0.721,0.721,0,0,0-.72.6Zm10.26-13.8,6.48-18.54h0.12l6.42,18.54H301.7Zm40.5,14.4a0.53,0.53,0,0,0,.6-0.6v-15.48a0.318,0.318,0,0,1,.36-0.36h9.42a15.558,15.558,0,0,0,5.34-.87,11.578,11.578,0,0,0,4.08-2.46,11.013,11.013,0,0,0,2.61-3.84,13.96,13.96,0,0,0,0-10.02,11.032,11.032,0,0,0-2.61-3.84,11.637,11.637,0,0,0-4.08-2.46,15.606,15.606,0,0,0-5.34-.87h-14.52a0.531,0.531,0,0,0-.6.6v39.6a0.53,0.53,0,0,0,.6.6h4.14Zm0.96-21.42a0.318,0.318,0,0,1-.36-0.36v-13.68a0.318,0.318,0,0,1,.36-0.36h9.12a8.4,8.4,0,0,1,5.88,1.92,7.688,7.688,0,0,1,0,10.56,8.393,8.393,0,0,1-5.88,1.92h-9.12Zm35.82,20.82a0.53,0.53,0,0,0,.6.6h4.14a0.53,0.53,0,0,0,.6-0.6v-17.16a0.318,0.318,0,0,1,.36-0.36h17.7a0.318,0.318,0,0,1,.36.36v17.16a0.53,0.53,0,0,0,.6.6h4.14a0.53,0.53,0,0,0,.6-0.6v-39.6a0.531,0.531,0,0,0-.6-0.6h-4.14a0.53,0.53,0,0,0-.6.6v16.74a0.318,0.318,0,0,1-.36.36h-17.7a0.318,0.318,0,0,1-.36-0.36v-16.74a0.531,0.531,0,0,0-.6-0.6h-4.14a0.53,0.53,0,0,0-.6.6v39.6Zm57.96,0.6a0.53,0.53,0,0,0,.6-0.6v-16.08l12.06-23.46c0.159-.439,0-0.66-0.48-0.66h-4.14a0.85,0.85,0,0,0-.84.6l-9.06,17.46h-0.12l-9.12-17.46a1.047,1.047,0,0,0-.9-0.6h-4.26c-0.48,0-.641.221-0.48,0.66l12.06,23.46v16.08a0.53,0.53,0,0,0,.6.6h4.08Z"/>
  <path d="M445.424,290.919a38.942,38.942,0,0,0,15.482,3.075c11.18-.017,20.089-3.187,26.726-9.759,6.641-6.8,9.955-16.58,10.023-34.966,0.157-39.5.653-102,2.231-237.556,0.066-5.77-.452-9.757-1.583-10.687-2.1-1.659-4.267-1.014-6.489,1.452-1.2,1.367-1.858,5.412-1.939,11.132-1.917,134.255-2.52,196.343-2.71,235.718-0.067,14.25-2.408,22.213-7.084,27.278-4.677,4.947-11,7.261-18.99,7.29a26.164,26.164,0,0,1-11.151-2.415,38.1,38.1,0,0,1-8.571-5.211,1.791,1.791,0,0,0-2.765.012q-2.488,2.343-4.976,4.669a2.321,2.321,0,0,0-.473.653,1.312,1.312,0,0,0-.127.652,1.992,1.992,0,0,0,.784,1.3,37.9,37.9,0,0,0,11.612,7.36h0Z"/>
  <path d="M533.083,290.18q-0.558,1.861,1.3,1.86h7.254a2.527,2.527,0,0,0,2.418-1.86l11.16-31.062h55.056l11.16,31.062a2.173,2.173,0,0,0,2.418,1.86h7.254q1.857,0,1.3-1.86l-43.9-122.76a2.234,2.234,0,0,0-2.232-1.86h-6.7a2.234,2.234,0,0,0-2.232,1.86Zm25.668-41.292,23.808-66.216h0.558l23.622,66.216H558.751Zm122.016,38.037q10.044,6.975,25.11,6.975a43.935,43.935,0,0,0,22.878-5.859q9.856-5.859,15.252-17.577,0.741-1.674-.558-2.418l-6.138-2.976q-1.491-.928-2.418.744a36.323,36.323,0,0,1-11.253,13.113q-6.975,4.93-17.763,4.929-11.718,0-18.879-5.3t-10.881-15.717q-0.558-1.857-1.116-4.464a57.953,57.953,0,0,1-.93-6.51q-0.375-3.906-.558-9.486T673.327,228.8q0-8,.186-13.578t0.558-9.486a58.057,58.057,0,0,1,.93-6.51q0.558-2.6,1.116-4.464,3.719-10.415,10.881-15.717t18.879-5.3q10.785,0,17.763,4.929a36.373,36.373,0,0,1,11.253,13.113q0.928,1.674,2.418.744l6.138-2.976q1.3-.741.558-2.418-5.4-11.718-15.252-17.577a43.935,43.935,0,0,0-22.878-5.859q-15.066,0-25.11,6.975t-14.88,21.3q-0.745,2.419-1.395,5.3a54.408,54.408,0,0,0-1.023,7.161q-0.375,4.281-.651,10.137T662.539,228.8q0,8.37.279,14.229t0.651,10.137a54.258,54.258,0,0,0,1.023,7.161q0.649,2.886,1.395,5.3Q670.722,279.953,680.767,286.925Zm105.462,3.255a1.643,1.643,0,0,0,1.86,1.86h6.882a1.644,1.644,0,0,0,1.86-1.86V254.84l25.854-30.876,38.13,66.4a3.279,3.279,0,0,0,2.79,1.674h8.37a1.219,1.219,0,0,0,1.209-.558,1.575,1.575,0,0,0-.279-1.488l-43.152-74.586,39.99-47.8a1.25,1.25,0,0,0,.465-1.395A1.173,1.173,0,0,0,869,165.56h-8.742a4.692,4.692,0,0,0-3.162,1.674l-60.264,73.1V167.42a1.646,1.646,0,0,0-1.86-1.86h-6.882a1.644,1.644,0,0,0-1.86,1.86V290.18Z"/>
</svg>
